M48
; DRILL file KiCad 10.0.0 date 2026-07-12T17:47:48
; FORMAT={-:-/ absolute / metric / decimal}
; #@! TF.CreationDate,2026-07-12T17:47:48-07:00
; #@! TF.GenerationSoftware,Kicad,Pcbnew,10.0.0
; #@! TF.FileFunction,Plated,1,4,PTH
FMAT,2
METRIC
; #@! TA.AperFunction,Plated,PTH,ViaDrill
T1C0.200
; #@! TA.AperFunction,Plated,PTH,ViaDrill
T2C0.300
; #@! TA.AperFunction,Plated,PTH,ComponentDrill
T3C0.600
; #@! TA.AperFunction,Plated,PTH,ComponentDrill
T4C0.889
; #@! TA.AperFunction,Plated,PTH,ComponentDrill
T5C1.000
; #@! TA.AperFunction,Plated,PTH,ComponentDrill
T6C1.000
%
G90
G05
T1
X111.728Y-87.551
X111.728Y-91.056
X116.028Y-103.478
X120.396Y-89.256
X123.647Y-103.226
X133.985Y-128.905
X135.255Y-125.095
X137.795Y-122.555
X139.7Y-120.015
X140.97Y-116.205
X141.427Y-121.717
X141.427Y-122.436
X141.427Y-123.139
X142.379Y-120.498
X143.51Y-113.665
X143.662Y-95.377
X143.916Y-120.675
X146.05Y-111.125
X146.837Y-93.396
X147.066Y-96.139
X147.955Y-118.745
X148.336Y-98.552
X148.59Y-108.585
X150.266Y-93.421
X150.47Y-102.972
X150.495Y-116.205
X151.587Y-97.892
X151.994Y-93.37
X152.044Y-102.972
X152.596Y-98.224
X152.781Y-92.456
X153.035Y-113.665
X153.797Y-89.662
X154.784Y-93.036
X155.016Y-96.774
X155.016Y-99.543
X155.575Y-111.125
X156.284Y-93.036
X156.362Y-95.377
X156.362Y-98.171
X157.48Y-102.87
X157.48Y-107.95
X157.836Y-96.774
X157.836Y-99.543
X158.784Y-102.464
X159.131Y-95.377
X159.131Y-98.171
X159.284Y-101.854
X160.274Y-105.283
X160.655Y-68.555
X161.29Y-102.489
X161.471Y-95.224
X161.696Y-106.172
X162.001Y-95.682
X162.052Y-93.218
X162.052Y-97.536
X163.068Y-95.504
X163.305Y-91.11
X163.805Y-93.269
X164.084Y-97.536
X164.186Y-68.453
X164.465Y-103.505
X164.465Y-107.95
X164.465Y-113.03
X164.465Y-119.38
X165.1Y-95.504
X166.116Y-97.536
X166.37Y-100.965
X167.132Y-95.504
X168.148Y-97.536
X168.91Y-104.14
X168.91Y-108.585
X168.91Y-113.665
X168.91Y-118.745
X169.164Y-95.504
X170.18Y-97.536
X171.196Y-95.504
X172.212Y-97.536
X173.228Y-95.504
X174.244Y-97.536
X175.26Y-95.504
X176.276Y-94.996
X176.276Y-97.536
X179.527Y-109.081
X179.781Y-96.52
X185.42Y-108.001
X187.401Y-102.87
T2
X110.465Y-96.469
X110.769Y-66.472
X110.769Y-70.282
X110.769Y-74.092
X110.769Y-77.902
X110.769Y-81.712
X110.769Y-85.522
X110.769Y-89.332
X110.769Y-93.142
X110.769Y-100.762
X110.769Y-104.572
X110.769Y-108.382
X110.769Y-112.192
X110.769Y-116.002
X110.769Y-119.812
X110.769Y-123.622
X110.769Y-127.432
X110.769Y-131.242
X110.769Y-135.052
X111.684Y-63.271
X112.014Y-136.83
X113.182Y-61.671
X114.122Y-137.871
X115.468Y-60.655
X116.815Y-138.43
X119.278Y-60.655
X120.625Y-138.43
X123.088Y-60.655
X123.241Y-92.735
X123.266Y-99.39
X124.435Y-138.43
X126.898Y-60.655
X127.051Y-92.735
X127.076Y-99.39
X128.245Y-138.43
X130.708Y-60.655
X130.861Y-92.735
X130.886Y-99.39
X132.055Y-138.43
X134.518Y-60.655
X134.671Y-92.735
X134.696Y-99.39
X135.865Y-138.43
X138.328Y-60.655
X138.481Y-92.735
X138.506Y-99.39
X139.675Y-138.43
X142.138Y-60.655
X142.291Y-92.735
X142.316Y-99.39
X143.154Y-127.432
X143.485Y-138.43
X144.879Y-127.381
X145.948Y-60.655
X146.355Y-121.572
X146.355Y-123.3
X146.939Y-126.009
X147.295Y-138.43
X148.59Y-66.04
X148.59Y-71.12
X148.59Y-76.2
X148.59Y-81.28
X149.758Y-60.655
X151.105Y-138.43
X151.13Y-86.36
X153.568Y-60.655
X154.915Y-138.43
X157.378Y-60.655
X158.725Y-138.43
X161.188Y-60.655
X162.535Y-138.43
X164.998Y-60.655
X165.1Y-69.85
X165.1Y-74.93
X165.1Y-80.01
X165.1Y-85.09
X165.1Y-90.17
X166.345Y-138.43
X168.808Y-60.655
X170.155Y-138.43
X171.628Y-125.959
X172.618Y-60.655
X173.965Y-138.43
X175.641Y-129.134
X176.428Y-60.655
X177.597Y-102.819
X177.775Y-138.43
X179.451Y-102.819
X180.238Y-60.655
X181.585Y-138.43
X181.61Y-93.32
X181.61Y-99.72
X182.372Y-94.742
X182.372Y-97.79
X183.286Y-110.439
X183.896Y-129.134
X184.048Y-60.655
X184.097Y-103.886
X184.76Y-106.426
X185.395Y-138.43
X185.42Y-90.17
X186.131Y-111.608
X186.182Y-110.185
X186.69Y-61.697
X187.579Y-137.389
X188.036Y-63.094
X188.595Y-135.839
X189.078Y-105.562
X189.179Y-65.126
X189.179Y-68.936
X189.179Y-72.746
X189.179Y-76.556
X189.179Y-80.366
X189.179Y-84.176
X189.179Y-87.986
X189.179Y-95.606
X189.179Y-99.416
X189.179Y-103.226
X189.179Y-110.846
X189.179Y-114.554
X189.179Y-118.364
X189.179Y-122.174
X189.179Y-125.984
X189.179Y-129.794
X189.179Y-133.604
T4
X155.536Y-133.198
X158.036Y-133.198
X160.536Y-133.198
X163.036Y-133.198
X165.536Y-133.198
X168.036Y-133.198
X170.536Y-133.198
T5
X113.024Y-93.778
X113.024Y-100.278
X117.524Y-93.778
X117.524Y-100.278
T6
X112.903Y-110.465
X112.903Y-113.005
X112.903Y-115.545
X134.62Y-131.42
X134.62Y-133.96
X137.16Y-131.42
X137.16Y-133.96
X139.7Y-131.42
X139.7Y-133.96
X142.24Y-131.42
X142.24Y-133.96
X144.78Y-131.42
X144.78Y-133.96
X146.964Y-62.814
X147.32Y-131.42
X147.32Y-133.96
X149.504Y-62.814
X152.044Y-62.814
X154.584Y-62.814
X157.124Y-62.814
X162.839Y-62.84
X165.379Y-62.84
X167.919Y-62.84
X170.459Y-62.84
X175.717Y-133.198
X178.257Y-133.198
X180.797Y-133.198
X183.337Y-133.198
T3
X183.798Y-92.2G85X184.599Y-92.2
G05
X183.798Y-100.84G85X184.599Y-100.84
G05
X187.599Y-92.2G85X188.798Y-92.2
G05
X187.599Y-100.84G85X188.798Y-100.84
G05
M30
