%TF.GenerationSoftware,KiCad,Pcbnew,10.0.0*%
%TF.CreationDate,2026-07-11T14:39:04-07:00*%
%TF.ProjectId,LiDAR Scanner,4c694441-5220-4536-9361-6e6e65722e6b,rev?*%
%TF.SameCoordinates,Original*%
%TF.FileFunction,Soldermask,Top*%
%TF.FilePolarity,Negative*%
%FSLAX46Y46*%
G04 Gerber Fmt 4.6, Leading zero omitted, Abs format (unit mm)*
G04 Created by KiCad (PCBNEW 10.0.0) date 2026-07-11 14:39:04*
%MOMM*%
%LPD*%
G01*
G04 APERTURE LIST*
G04 Aperture macros list*
%AMRoundRect*
0 Rectangle with rounded corners*
0 $1 Rounding radius*
0 $2 $3 $4 $5 $6 $7 $8 $9 X,Y pos of 4 corners*
0 Add a 4 corners polygon primitive as box body*
4,1,4,$2,$3,$4,$5,$6,$7,$8,$9,$2,$3,0*
0 Add four circle primitives for the rounded corners*
1,1,$1+$1,$2,$3*
1,1,$1+$1,$4,$5*
1,1,$1+$1,$6,$7*
1,1,$1+$1,$8,$9*
0 Add four rect primitives between the rounded corners*
20,1,$1+$1,$2,$3,$4,$5,0*
20,1,$1+$1,$4,$5,$6,$7,0*
20,1,$1+$1,$6,$7,$8,$9,0*
20,1,$1+$1,$8,$9,$2,$3,0*%
G04 Aperture macros list end*
%ADD10C,1.507998*%
%ADD11RoundRect,0.237500X0.300000X0.237500X-0.300000X0.237500X-0.300000X-0.237500X0.300000X-0.237500X0*%
%ADD12RoundRect,0.237500X-0.300000X-0.237500X0.300000X-0.237500X0.300000X0.237500X-0.300000X0.237500X0*%
%ADD13RoundRect,0.237500X-0.250000X-0.237500X0.250000X-0.237500X0.250000X0.237500X-0.250000X0.237500X0*%
%ADD14R,1.700000X1.700000*%
%ADD15C,1.700000*%
%ADD16RoundRect,0.150000X0.200000X-0.150000X0.200000X0.150000X-0.200000X0.150000X-0.200000X-0.150000X0*%
%ADD17RoundRect,0.237500X0.237500X-0.300000X0.237500X0.300000X-0.237500X0.300000X-0.237500X-0.300000X0*%
%ADD18C,3.000000*%
%ADD19RoundRect,0.250000X-0.450000X0.325000X-0.450000X-0.325000X0.450000X-0.325000X0.450000X0.325000X0*%
%ADD20R,1.803400X1.193800*%
%ADD21RoundRect,0.150000X0.512500X0.150000X-0.512500X0.150000X-0.512500X-0.150000X0.512500X-0.150000X0*%
%ADD22C,1.397000*%
%ADD23RoundRect,0.250000X-0.325000X-0.450000X0.325000X-0.450000X0.325000X0.450000X-0.325000X0.450000X0*%
%ADD24R,1.150000X0.600000*%
%ADD25R,1.150000X0.300000*%
%ADD26O,2.004000X1.204000*%
%ADD27O,2.404000X1.204000*%
%ADD28RoundRect,0.062500X-0.375000X-0.062500X0.375000X-0.062500X0.375000X0.062500X-0.375000X0.062500X0*%
%ADD29RoundRect,0.062500X-0.062500X-0.375000X0.062500X-0.375000X0.062500X0.375000X-0.062500X0.375000X0*%
%ADD30R,5.600000X5.600000*%
%ADD31RoundRect,0.250000X-0.550000X0.250000X-0.550000X-0.250000X0.550000X-0.250000X0.550000X0.250000X0*%
%ADD32RoundRect,0.237500X-0.237500X0.300000X-0.237500X-0.300000X0.237500X-0.300000X0.237500X0.300000X0*%
%ADD33RoundRect,0.237500X0.237500X-0.287500X0.237500X0.287500X-0.237500X0.287500X-0.237500X-0.287500X0*%
G04 APERTURE END LIST*
D10*
%TO.C,SW1*%
X117523900Y-93777999D03*
X117523900Y-100278001D03*
X113023899Y-93777999D03*
X113023899Y-100278001D03*
%TD*%
D11*
%TO.C,C4*%
X151992500Y-94361000D03*
X150267500Y-94361000D03*
%TD*%
D12*
%TO.C,R5*%
X116028300Y-102362000D03*
X117753300Y-102362000D03*
%TD*%
D13*
%TO.C,R7*%
X117571500Y-89278400D03*
X119396500Y-89278400D03*
%TD*%
D14*
%TO.C,J3*%
X112903000Y-110464600D03*
D15*
X112903000Y-113004600D03*
X112903000Y-115544600D03*
%TD*%
D16*
%TO.C,D1*%
X164185600Y-66508400D03*
X164185600Y-67908400D03*
%TD*%
D12*
%TO.C,R4*%
X176837000Y-129133600D03*
X178562000Y-129133600D03*
%TD*%
D17*
%TO.C,C12*%
X143637000Y-98144500D03*
X143637000Y-96419500D03*
%TD*%
D18*
%TO.C,3*%
X185013600Y-80010000D03*
%TD*%
D19*
%TO.C,F1*%
X186182000Y-102870000D03*
X186182000Y-104920000D03*
%TD*%
D20*
%TO.C,Y1*%
X145878799Y-98482000D03*
X149878801Y-98482000D03*
X149878801Y-96082000D03*
X145878799Y-96082000D03*
%TD*%
D16*
%TO.C,D2*%
X160655000Y-66610000D03*
X160655000Y-68010000D03*
%TD*%
D21*
%TO.C,U4*%
X180715500Y-97470000D03*
X180715500Y-96520000D03*
X180715500Y-95570000D03*
X178440500Y-95570000D03*
X178440500Y-96520000D03*
X178440500Y-97470000D03*
%TD*%
D22*
%TO.C,U1*%
X155535599Y-133197600D03*
X158035599Y-133197600D03*
X160535599Y-133197600D03*
X163035599Y-133197600D03*
X165535599Y-133197600D03*
X168035600Y-133197600D03*
X170535600Y-133197600D03*
%TD*%
D17*
%TO.C,C7*%
X153797000Y-92429500D03*
X153797000Y-90704500D03*
%TD*%
%TO.C,C9*%
X152044400Y-101953400D03*
X152044400Y-100228400D03*
%TD*%
D12*
%TO.C,C8*%
X162053100Y-92227400D03*
X163778100Y-92227400D03*
%TD*%
D14*
%TO.C,J2*%
X183337200Y-133197600D03*
D15*
X180797200Y-133197600D03*
X178257200Y-133197600D03*
X175717200Y-133197600D03*
%TD*%
D18*
%TO.C,2*%
X114974000Y-71989200D03*
%TD*%
D11*
%TO.C,C1*%
X189076500Y-106680000D03*
X187351500Y-106680000D03*
%TD*%
D23*
%TO.C,D3*%
X180585000Y-129133600D03*
X182635000Y-129133600D03*
%TD*%
D14*
%TO.C,J6*%
X147320000Y-131419600D03*
D15*
X147320000Y-133959600D03*
X144780000Y-131419600D03*
X144780000Y-133959600D03*
X142240000Y-131419600D03*
X142240000Y-133959600D03*
X139700000Y-131419600D03*
X139700000Y-133959600D03*
X137160000Y-131419600D03*
X137160000Y-133959600D03*
X134620000Y-131419600D03*
X134620000Y-133959600D03*
%TD*%
D14*
%TO.C,J4*%
X157124400Y-62814200D03*
D15*
X154584400Y-62814200D03*
X152044400Y-62814200D03*
X149504400Y-62814200D03*
X146964400Y-62814200D03*
%TD*%
D12*
%TO.C,C5*%
X162078500Y-94234000D03*
X163803500Y-94234000D03*
%TD*%
D24*
%TO.C,J1*%
X183623500Y-99720000D03*
X183623500Y-93320000D03*
X183623500Y-98920000D03*
X183623500Y-94120000D03*
D25*
X183623500Y-97770000D03*
X183623500Y-96770000D03*
X183623500Y-96270000D03*
X183623500Y-95270000D03*
X183623500Y-94770000D03*
X183623500Y-95770000D03*
X183623500Y-97270000D03*
X183623500Y-98270000D03*
D26*
X184198500Y-100840000D03*
D27*
X188198500Y-100840000D03*
D26*
X184198500Y-92200000D03*
D27*
X188198500Y-92200000D03*
%TD*%
D28*
%TO.C,U5*%
X153596500Y-94724000D03*
X153596500Y-95224000D03*
X153596500Y-95724000D03*
X153596500Y-96224000D03*
X153596500Y-96724000D03*
X153596500Y-97224000D03*
X153596500Y-97724000D03*
X153596500Y-98224000D03*
X153596500Y-98724000D03*
X153596500Y-99224000D03*
X153596500Y-99724000D03*
X153596500Y-100224000D03*
D29*
X154284000Y-100911500D03*
X154784000Y-100911500D03*
X155284000Y-100911500D03*
X155784000Y-100911500D03*
X156284000Y-100911500D03*
X156784000Y-100911500D03*
X157284000Y-100911500D03*
X157784000Y-100911500D03*
X158284000Y-100911500D03*
X158784000Y-100911500D03*
X159284000Y-100911500D03*
X159784000Y-100911500D03*
D28*
X160471500Y-100224000D03*
X160471500Y-99724000D03*
X160471500Y-99224000D03*
X160471500Y-98724000D03*
X160471500Y-98224000D03*
X160471500Y-97724000D03*
X160471500Y-97224000D03*
X160471500Y-96724000D03*
X160471500Y-96224000D03*
X160471500Y-95724000D03*
X160471500Y-95224000D03*
X160471500Y-94724000D03*
D29*
X159784000Y-94036500D03*
X159284000Y-94036500D03*
X158784000Y-94036500D03*
X158284000Y-94036500D03*
X157784000Y-94036500D03*
X157284000Y-94036500D03*
X156784000Y-94036500D03*
X156284000Y-94036500D03*
X155784000Y-94036500D03*
X155284000Y-94036500D03*
X154784000Y-94036500D03*
X154284000Y-94036500D03*
D30*
X157034000Y-97474000D03*
%TD*%
D31*
%TO.C,SW2*%
X113048400Y-87556400D03*
X115348400Y-89306400D03*
X113048400Y-91056400D03*
%TD*%
D21*
%TO.C,U3*%
X182595100Y-107390100D03*
X182595100Y-106440100D03*
X182595100Y-105490100D03*
X180320100Y-105490100D03*
X180320100Y-107390100D03*
%TD*%
D17*
%TO.C,R3*%
X178536600Y-105524600D03*
X178536600Y-103799600D03*
%TD*%
D14*
%TO.C,J5*%
X170459400Y-62839600D03*
D15*
X167919400Y-62839600D03*
X165379400Y-62839600D03*
X162839400Y-62839600D03*
%TD*%
D18*
%TO.C,4*%
X185013600Y-119989600D03*
%TD*%
%TO.C,1*%
X114974000Y-128005600D03*
%TD*%
D32*
%TO.C,C6*%
X160274000Y-102515500D03*
X160274000Y-104240500D03*
%TD*%
D17*
%TO.C,C2*%
X184404000Y-110387300D03*
X184404000Y-108662300D03*
%TD*%
D33*
%TO.C,FB1*%
X150469600Y-101964800D03*
X150469600Y-100214800D03*
%TD*%
D17*
%TO.C,C3*%
X178536600Y-109080600D03*
X178536600Y-107355600D03*
%TD*%
D11*
%TO.C,C11*%
X148563500Y-94361000D03*
X146838500Y-94361000D03*
%TD*%
M02*
