%TF.GenerationSoftware,KiCad,Pcbnew,10.0.0*%
%TF.CreationDate,2026-07-12T17:47:41-07:00*%
%TF.ProjectId,LiDAR Scanner,4c694441-5220-4536-9361-6e6e65722e6b,rev?*%
%TF.SameCoordinates,Original*%
%TF.FileFunction,Legend,Bot*%
%TF.FilePolarity,Positive*%
%FSLAX46Y46*%
G04 Gerber Fmt 4.6, Leading zero omitted, Abs format (unit mm)*
G04 Created by KiCad (PCBNEW 10.0.0) date 2026-07-12 17:47:41*
%MOMM*%
%LPD*%
G01*
G04 APERTURE LIST*
%ADD10C,0.150000*%
%ADD11C,0.254000*%
%ADD12C,0.508000*%
%ADD13C,0.152400*%
%ADD14C,0.000000*%
%ADD15C,0.120000*%
G04 APERTURE END LIST*
D10*
X139993019Y-121539095D02*
X140802542Y-121539095D01*
X140802542Y-121539095D02*
X140897780Y-121586714D01*
X140897780Y-121586714D02*
X140945400Y-121634333D01*
X140945400Y-121634333D02*
X140993019Y-121729571D01*
X140993019Y-121729571D02*
X140993019Y-121920047D01*
X140993019Y-121920047D02*
X140945400Y-122015285D01*
X140945400Y-122015285D02*
X140897780Y-122062904D01*
X140897780Y-122062904D02*
X140802542Y-122110523D01*
X140802542Y-122110523D02*
X139993019Y-122110523D01*
X140088257Y-122539095D02*
X140040638Y-122586714D01*
X140040638Y-122586714D02*
X139993019Y-122681952D01*
X139993019Y-122681952D02*
X139993019Y-122920047D01*
X139993019Y-122920047D02*
X140040638Y-123015285D01*
X140040638Y-123015285D02*
X140088257Y-123062904D01*
X140088257Y-123062904D02*
X140183495Y-123110523D01*
X140183495Y-123110523D02*
X140278733Y-123110523D01*
X140278733Y-123110523D02*
X140421590Y-123062904D01*
X140421590Y-123062904D02*
X140993019Y-122491476D01*
X140993019Y-122491476D02*
X140993019Y-123110523D01*
X141570319Y-120420600D02*
X141808414Y-120420600D01*
X141713176Y-120182505D02*
X141808414Y-120420600D01*
X141808414Y-120420600D02*
X141713176Y-120658695D01*
X141998890Y-120277743D02*
X141808414Y-120420600D01*
X141808414Y-120420600D02*
X141998890Y-120563457D01*
X141570319Y-120420600D02*
X141808414Y-120420600D01*
X141713176Y-120182505D02*
X141808414Y-120420600D01*
X141808414Y-120420600D02*
X141713176Y-120658695D01*
X141998890Y-120277743D02*
X141808414Y-120420600D01*
X141808414Y-120420600D02*
X141998890Y-120563457D01*
X160561257Y-105007580D02*
X160608876Y-105055200D01*
X160608876Y-105055200D02*
X160751733Y-105102819D01*
X160751733Y-105102819D02*
X160846971Y-105102819D01*
X160846971Y-105102819D02*
X160989828Y-105055200D01*
X160989828Y-105055200D02*
X161085066Y-104959961D01*
X161085066Y-104959961D02*
X161132685Y-104864723D01*
X161132685Y-104864723D02*
X161180304Y-104674247D01*
X161180304Y-104674247D02*
X161180304Y-104531390D01*
X161180304Y-104531390D02*
X161132685Y-104340914D01*
X161132685Y-104340914D02*
X161085066Y-104245676D01*
X161085066Y-104245676D02*
X160989828Y-104150438D01*
X160989828Y-104150438D02*
X160846971Y-104102819D01*
X160846971Y-104102819D02*
X160751733Y-104102819D01*
X160751733Y-104102819D02*
X160608876Y-104150438D01*
X160608876Y-104150438D02*
X160561257Y-104198057D01*
X159608876Y-105102819D02*
X160180304Y-105102819D01*
X159894590Y-105102819D02*
X159894590Y-104102819D01*
X159894590Y-104102819D02*
X159989828Y-104245676D01*
X159989828Y-104245676D02*
X160085066Y-104340914D01*
X160085066Y-104340914D02*
X160180304Y-104388533D01*
X159275542Y-104102819D02*
X158656495Y-104102819D01*
X158656495Y-104102819D02*
X158989828Y-104483771D01*
X158989828Y-104483771D02*
X158846971Y-104483771D01*
X158846971Y-104483771D02*
X158751733Y-104531390D01*
X158751733Y-104531390D02*
X158704114Y-104579009D01*
X158704114Y-104579009D02*
X158656495Y-104674247D01*
X158656495Y-104674247D02*
X158656495Y-104912342D01*
X158656495Y-104912342D02*
X158704114Y-105007580D01*
X158704114Y-105007580D02*
X158751733Y-105055200D01*
X158751733Y-105055200D02*
X158846971Y-105102819D01*
X158846971Y-105102819D02*
X159132685Y-105102819D01*
X159132685Y-105102819D02*
X159227923Y-105055200D01*
X159227923Y-105055200D02*
X159275542Y-105007580D01*
X147222380Y-121793143D02*
X147270000Y-121745524D01*
X147270000Y-121745524D02*
X147317619Y-121602667D01*
X147317619Y-121602667D02*
X147317619Y-121507429D01*
X147317619Y-121507429D02*
X147270000Y-121364572D01*
X147270000Y-121364572D02*
X147174761Y-121269334D01*
X147174761Y-121269334D02*
X147079523Y-121221715D01*
X147079523Y-121221715D02*
X146889047Y-121174096D01*
X146889047Y-121174096D02*
X146746190Y-121174096D01*
X146746190Y-121174096D02*
X146555714Y-121221715D01*
X146555714Y-121221715D02*
X146460476Y-121269334D01*
X146460476Y-121269334D02*
X146365238Y-121364572D01*
X146365238Y-121364572D02*
X146317619Y-121507429D01*
X146317619Y-121507429D02*
X146317619Y-121602667D01*
X146317619Y-121602667D02*
X146365238Y-121745524D01*
X146365238Y-121745524D02*
X146412857Y-121793143D01*
X147317619Y-122745524D02*
X147317619Y-122174096D01*
X147317619Y-122459810D02*
X146317619Y-122459810D01*
X146317619Y-122459810D02*
X146460476Y-122364572D01*
X146460476Y-122364572D02*
X146555714Y-122269334D01*
X146555714Y-122269334D02*
X146603333Y-122174096D01*
X146650952Y-123602667D02*
X147317619Y-123602667D01*
X146270000Y-123364572D02*
X146984285Y-123126477D01*
X146984285Y-123126477D02*
X146984285Y-123745524D01*
X183401166Y-89194819D02*
X183734499Y-88718628D01*
X183972594Y-89194819D02*
X183972594Y-88194819D01*
X183972594Y-88194819D02*
X183591642Y-88194819D01*
X183591642Y-88194819D02*
X183496404Y-88242438D01*
X183496404Y-88242438D02*
X183448785Y-88290057D01*
X183448785Y-88290057D02*
X183401166Y-88385295D01*
X183401166Y-88385295D02*
X183401166Y-88528152D01*
X183401166Y-88528152D02*
X183448785Y-88623390D01*
X183448785Y-88623390D02*
X183496404Y-88671009D01*
X183496404Y-88671009D02*
X183591642Y-88718628D01*
X183591642Y-88718628D02*
X183972594Y-88718628D01*
X183020213Y-88290057D02*
X182972594Y-88242438D01*
X182972594Y-88242438D02*
X182877356Y-88194819D01*
X182877356Y-88194819D02*
X182639261Y-88194819D01*
X182639261Y-88194819D02*
X182544023Y-88242438D01*
X182544023Y-88242438D02*
X182496404Y-88290057D01*
X182496404Y-88290057D02*
X182448785Y-88385295D01*
X182448785Y-88385295D02*
X182448785Y-88480533D01*
X182448785Y-88480533D02*
X182496404Y-88623390D01*
X182496404Y-88623390D02*
X183067832Y-89194819D01*
X183067832Y-89194819D02*
X182448785Y-89194819D01*
X120588066Y-99489419D02*
X120921399Y-99013228D01*
X121159494Y-99489419D02*
X121159494Y-98489419D01*
X121159494Y-98489419D02*
X120778542Y-98489419D01*
X120778542Y-98489419D02*
X120683304Y-98537038D01*
X120683304Y-98537038D02*
X120635685Y-98584657D01*
X120635685Y-98584657D02*
X120588066Y-98679895D01*
X120588066Y-98679895D02*
X120588066Y-98822752D01*
X120588066Y-98822752D02*
X120635685Y-98917990D01*
X120635685Y-98917990D02*
X120683304Y-98965609D01*
X120683304Y-98965609D02*
X120778542Y-99013228D01*
X120778542Y-99013228D02*
X121159494Y-99013228D01*
X119730923Y-98489419D02*
X119921399Y-98489419D01*
X119921399Y-98489419D02*
X120016637Y-98537038D01*
X120016637Y-98537038D02*
X120064256Y-98584657D01*
X120064256Y-98584657D02*
X120159494Y-98727514D01*
X120159494Y-98727514D02*
X120207113Y-98917990D01*
X120207113Y-98917990D02*
X120207113Y-99298942D01*
X120207113Y-99298942D02*
X120159494Y-99394180D01*
X120159494Y-99394180D02*
X120111875Y-99441800D01*
X120111875Y-99441800D02*
X120016637Y-99489419D01*
X120016637Y-99489419D02*
X119826161Y-99489419D01*
X119826161Y-99489419D02*
X119730923Y-99441800D01*
X119730923Y-99441800D02*
X119683304Y-99394180D01*
X119683304Y-99394180D02*
X119635685Y-99298942D01*
X119635685Y-99298942D02*
X119635685Y-99060847D01*
X119635685Y-99060847D02*
X119683304Y-98965609D01*
X119683304Y-98965609D02*
X119730923Y-98917990D01*
X119730923Y-98917990D02*
X119826161Y-98870371D01*
X119826161Y-98870371D02*
X120016637Y-98870371D01*
X120016637Y-98870371D02*
X120111875Y-98917990D01*
X120111875Y-98917990D02*
X120159494Y-98965609D01*
X120159494Y-98965609D02*
X120207113Y-99060847D01*
X159049933Y-123629009D02*
X159383266Y-123629009D01*
X159383266Y-124152819D02*
X159383266Y-123152819D01*
X159383266Y-123152819D02*
X158907076Y-123152819D01*
X158192790Y-123629009D02*
X158049933Y-123676628D01*
X158049933Y-123676628D02*
X158002314Y-123724247D01*
X158002314Y-123724247D02*
X157954695Y-123819485D01*
X157954695Y-123819485D02*
X157954695Y-123962342D01*
X157954695Y-123962342D02*
X158002314Y-124057580D01*
X158002314Y-124057580D02*
X158049933Y-124105200D01*
X158049933Y-124105200D02*
X158145171Y-124152819D01*
X158145171Y-124152819D02*
X158526123Y-124152819D01*
X158526123Y-124152819D02*
X158526123Y-123152819D01*
X158526123Y-123152819D02*
X158192790Y-123152819D01*
X158192790Y-123152819D02*
X158097552Y-123200438D01*
X158097552Y-123200438D02*
X158049933Y-123248057D01*
X158049933Y-123248057D02*
X158002314Y-123343295D01*
X158002314Y-123343295D02*
X158002314Y-123438533D01*
X158002314Y-123438533D02*
X158049933Y-123533771D01*
X158049933Y-123533771D02*
X158097552Y-123581390D01*
X158097552Y-123581390D02*
X158192790Y-123629009D01*
X158192790Y-123629009D02*
X158526123Y-123629009D01*
X157573742Y-123248057D02*
X157526123Y-123200438D01*
X157526123Y-123200438D02*
X157430885Y-123152819D01*
X157430885Y-123152819D02*
X157192790Y-123152819D01*
X157192790Y-123152819D02*
X157097552Y-123200438D01*
X157097552Y-123200438D02*
X157049933Y-123248057D01*
X157049933Y-123248057D02*
X157002314Y-123343295D01*
X157002314Y-123343295D02*
X157002314Y-123438533D01*
X157002314Y-123438533D02*
X157049933Y-123581390D01*
X157049933Y-123581390D02*
X157621361Y-124152819D01*
X157621361Y-124152819D02*
X157002314Y-124152819D01*
X167724057Y-121466780D02*
X167771676Y-121514400D01*
X167771676Y-121514400D02*
X167914533Y-121562019D01*
X167914533Y-121562019D02*
X168009771Y-121562019D01*
X168009771Y-121562019D02*
X168152628Y-121514400D01*
X168152628Y-121514400D02*
X168247866Y-121419161D01*
X168247866Y-121419161D02*
X168295485Y-121323923D01*
X168295485Y-121323923D02*
X168343104Y-121133447D01*
X168343104Y-121133447D02*
X168343104Y-120990590D01*
X168343104Y-120990590D02*
X168295485Y-120800114D01*
X168295485Y-120800114D02*
X168247866Y-120704876D01*
X168247866Y-120704876D02*
X168152628Y-120609638D01*
X168152628Y-120609638D02*
X168009771Y-120562019D01*
X168009771Y-120562019D02*
X167914533Y-120562019D01*
X167914533Y-120562019D02*
X167771676Y-120609638D01*
X167771676Y-120609638D02*
X167724057Y-120657257D01*
X166771676Y-121562019D02*
X167343104Y-121562019D01*
X167057390Y-121562019D02*
X167057390Y-120562019D01*
X167057390Y-120562019D02*
X167152628Y-120704876D01*
X167152628Y-120704876D02*
X167247866Y-120800114D01*
X167247866Y-120800114D02*
X167343104Y-120847733D01*
X166438342Y-120562019D02*
X165771676Y-120562019D01*
X165771676Y-120562019D02*
X166200247Y-121562019D01*
X182081466Y-101648419D02*
X182414799Y-101172228D01*
X182652894Y-101648419D02*
X182652894Y-100648419D01*
X182652894Y-100648419D02*
X182271942Y-100648419D01*
X182271942Y-100648419D02*
X182176704Y-100696038D01*
X182176704Y-100696038D02*
X182129085Y-100743657D01*
X182129085Y-100743657D02*
X182081466Y-100838895D01*
X182081466Y-100838895D02*
X182081466Y-100981752D01*
X182081466Y-100981752D02*
X182129085Y-101076990D01*
X182129085Y-101076990D02*
X182176704Y-101124609D01*
X182176704Y-101124609D02*
X182271942Y-101172228D01*
X182271942Y-101172228D02*
X182652894Y-101172228D01*
X181129085Y-101648419D02*
X181700513Y-101648419D01*
X181414799Y-101648419D02*
X181414799Y-100648419D01*
X181414799Y-100648419D02*
X181510037Y-100791276D01*
X181510037Y-100791276D02*
X181605275Y-100886514D01*
X181605275Y-100886514D02*
X181700513Y-100934133D01*
X124895780Y-101744542D02*
X124943400Y-101696923D01*
X124943400Y-101696923D02*
X124991019Y-101554066D01*
X124991019Y-101554066D02*
X124991019Y-101458828D01*
X124991019Y-101458828D02*
X124943400Y-101315971D01*
X124943400Y-101315971D02*
X124848161Y-101220733D01*
X124848161Y-101220733D02*
X124752923Y-101173114D01*
X124752923Y-101173114D02*
X124562447Y-101125495D01*
X124562447Y-101125495D02*
X124419590Y-101125495D01*
X124419590Y-101125495D02*
X124229114Y-101173114D01*
X124229114Y-101173114D02*
X124133876Y-101220733D01*
X124133876Y-101220733D02*
X124038638Y-101315971D01*
X124038638Y-101315971D02*
X123991019Y-101458828D01*
X123991019Y-101458828D02*
X123991019Y-101554066D01*
X123991019Y-101554066D02*
X124038638Y-101696923D01*
X124038638Y-101696923D02*
X124086257Y-101744542D01*
X124991019Y-102696923D02*
X124991019Y-102125495D01*
X124991019Y-102411209D02*
X123991019Y-102411209D01*
X123991019Y-102411209D02*
X124133876Y-102315971D01*
X124133876Y-102315971D02*
X124229114Y-102220733D01*
X124229114Y-102220733D02*
X124276733Y-102125495D01*
X123991019Y-103315971D02*
X123991019Y-103411209D01*
X123991019Y-103411209D02*
X124038638Y-103506447D01*
X124038638Y-103506447D02*
X124086257Y-103554066D01*
X124086257Y-103554066D02*
X124181495Y-103601685D01*
X124181495Y-103601685D02*
X124371971Y-103649304D01*
X124371971Y-103649304D02*
X124610066Y-103649304D01*
X124610066Y-103649304D02*
X124800542Y-103601685D01*
X124800542Y-103601685D02*
X124895780Y-103554066D01*
X124895780Y-103554066D02*
X124943400Y-103506447D01*
X124943400Y-103506447D02*
X124991019Y-103411209D01*
X124991019Y-103411209D02*
X124991019Y-103315971D01*
X124991019Y-103315971D02*
X124943400Y-103220733D01*
X124943400Y-103220733D02*
X124895780Y-103173114D01*
X124895780Y-103173114D02*
X124800542Y-103125495D01*
X124800542Y-103125495D02*
X124610066Y-103077876D01*
X124610066Y-103077876D02*
X124371971Y-103077876D01*
X124371971Y-103077876D02*
X124181495Y-103125495D01*
X124181495Y-103125495D02*
X124086257Y-103173114D01*
X124086257Y-103173114D02*
X124038638Y-103220733D01*
X124038638Y-103220733D02*
X123991019Y-103315971D01*
X152115757Y-122025580D02*
X152163376Y-122073200D01*
X152163376Y-122073200D02*
X152306233Y-122120819D01*
X152306233Y-122120819D02*
X152401471Y-122120819D01*
X152401471Y-122120819D02*
X152544328Y-122073200D01*
X152544328Y-122073200D02*
X152639566Y-121977961D01*
X152639566Y-121977961D02*
X152687185Y-121882723D01*
X152687185Y-121882723D02*
X152734804Y-121692247D01*
X152734804Y-121692247D02*
X152734804Y-121549390D01*
X152734804Y-121549390D02*
X152687185Y-121358914D01*
X152687185Y-121358914D02*
X152639566Y-121263676D01*
X152639566Y-121263676D02*
X152544328Y-121168438D01*
X152544328Y-121168438D02*
X152401471Y-121120819D01*
X152401471Y-121120819D02*
X152306233Y-121120819D01*
X152306233Y-121120819D02*
X152163376Y-121168438D01*
X152163376Y-121168438D02*
X152115757Y-121216057D01*
X151163376Y-122120819D02*
X151734804Y-122120819D01*
X151449090Y-122120819D02*
X151449090Y-121120819D01*
X151449090Y-121120819D02*
X151544328Y-121263676D01*
X151544328Y-121263676D02*
X151639566Y-121358914D01*
X151639566Y-121358914D02*
X151734804Y-121406533D01*
X150591947Y-121549390D02*
X150687185Y-121501771D01*
X150687185Y-121501771D02*
X150734804Y-121454152D01*
X150734804Y-121454152D02*
X150782423Y-121358914D01*
X150782423Y-121358914D02*
X150782423Y-121311295D01*
X150782423Y-121311295D02*
X150734804Y-121216057D01*
X150734804Y-121216057D02*
X150687185Y-121168438D01*
X150687185Y-121168438D02*
X150591947Y-121120819D01*
X150591947Y-121120819D02*
X150401471Y-121120819D01*
X150401471Y-121120819D02*
X150306233Y-121168438D01*
X150306233Y-121168438D02*
X150258614Y-121216057D01*
X150258614Y-121216057D02*
X150210995Y-121311295D01*
X150210995Y-121311295D02*
X150210995Y-121358914D01*
X150210995Y-121358914D02*
X150258614Y-121454152D01*
X150258614Y-121454152D02*
X150306233Y-121501771D01*
X150306233Y-121501771D02*
X150401471Y-121549390D01*
X150401471Y-121549390D02*
X150591947Y-121549390D01*
X150591947Y-121549390D02*
X150687185Y-121597009D01*
X150687185Y-121597009D02*
X150734804Y-121644628D01*
X150734804Y-121644628D02*
X150782423Y-121739866D01*
X150782423Y-121739866D02*
X150782423Y-121930342D01*
X150782423Y-121930342D02*
X150734804Y-122025580D01*
X150734804Y-122025580D02*
X150687185Y-122073200D01*
X150687185Y-122073200D02*
X150591947Y-122120819D01*
X150591947Y-122120819D02*
X150401471Y-122120819D01*
X150401471Y-122120819D02*
X150306233Y-122073200D01*
X150306233Y-122073200D02*
X150258614Y-122025580D01*
X150258614Y-122025580D02*
X150210995Y-121930342D01*
X150210995Y-121930342D02*
X150210995Y-121739866D01*
X150210995Y-121739866D02*
X150258614Y-121644628D01*
X150258614Y-121644628D02*
X150306233Y-121597009D01*
X150306233Y-121597009D02*
X150401471Y-121549390D01*
X141563157Y-126826180D02*
X141610776Y-126873800D01*
X141610776Y-126873800D02*
X141753633Y-126921419D01*
X141753633Y-126921419D02*
X141848871Y-126921419D01*
X141848871Y-126921419D02*
X141991728Y-126873800D01*
X141991728Y-126873800D02*
X142086966Y-126778561D01*
X142086966Y-126778561D02*
X142134585Y-126683323D01*
X142134585Y-126683323D02*
X142182204Y-126492847D01*
X142182204Y-126492847D02*
X142182204Y-126349990D01*
X142182204Y-126349990D02*
X142134585Y-126159514D01*
X142134585Y-126159514D02*
X142086966Y-126064276D01*
X142086966Y-126064276D02*
X141991728Y-125969038D01*
X141991728Y-125969038D02*
X141848871Y-125921419D01*
X141848871Y-125921419D02*
X141753633Y-125921419D01*
X141753633Y-125921419D02*
X141610776Y-125969038D01*
X141610776Y-125969038D02*
X141563157Y-126016657D01*
X140610776Y-126921419D02*
X141182204Y-126921419D01*
X140896490Y-126921419D02*
X140896490Y-125921419D01*
X140896490Y-125921419D02*
X140991728Y-126064276D01*
X140991728Y-126064276D02*
X141086966Y-126159514D01*
X141086966Y-126159514D02*
X141182204Y-126207133D01*
X139753633Y-125921419D02*
X139944109Y-125921419D01*
X139944109Y-125921419D02*
X140039347Y-125969038D01*
X140039347Y-125969038D02*
X140086966Y-126016657D01*
X140086966Y-126016657D02*
X140182204Y-126159514D01*
X140182204Y-126159514D02*
X140229823Y-126349990D01*
X140229823Y-126349990D02*
X140229823Y-126730942D01*
X140229823Y-126730942D02*
X140182204Y-126826180D01*
X140182204Y-126826180D02*
X140134585Y-126873800D01*
X140134585Y-126873800D02*
X140039347Y-126921419D01*
X140039347Y-126921419D02*
X139848871Y-126921419D01*
X139848871Y-126921419D02*
X139753633Y-126873800D01*
X139753633Y-126873800D02*
X139706014Y-126826180D01*
X139706014Y-126826180D02*
X139658395Y-126730942D01*
X139658395Y-126730942D02*
X139658395Y-126492847D01*
X139658395Y-126492847D02*
X139706014Y-126397609D01*
X139706014Y-126397609D02*
X139753633Y-126349990D01*
X139753633Y-126349990D02*
X139848871Y-126302371D01*
X139848871Y-126302371D02*
X140039347Y-126302371D01*
X140039347Y-126302371D02*
X140134585Y-126349990D01*
X140134585Y-126349990D02*
X140182204Y-126397609D01*
X140182204Y-126397609D02*
X140229823Y-126492847D01*
X141563157Y-125352980D02*
X141610776Y-125400600D01*
X141610776Y-125400600D02*
X141753633Y-125448219D01*
X141753633Y-125448219D02*
X141848871Y-125448219D01*
X141848871Y-125448219D02*
X141991728Y-125400600D01*
X141991728Y-125400600D02*
X142086966Y-125305361D01*
X142086966Y-125305361D02*
X142134585Y-125210123D01*
X142134585Y-125210123D02*
X142182204Y-125019647D01*
X142182204Y-125019647D02*
X142182204Y-124876790D01*
X142182204Y-124876790D02*
X142134585Y-124686314D01*
X142134585Y-124686314D02*
X142086966Y-124591076D01*
X142086966Y-124591076D02*
X141991728Y-124495838D01*
X141991728Y-124495838D02*
X141848871Y-124448219D01*
X141848871Y-124448219D02*
X141753633Y-124448219D01*
X141753633Y-124448219D02*
X141610776Y-124495838D01*
X141610776Y-124495838D02*
X141563157Y-124543457D01*
X140610776Y-125448219D02*
X141182204Y-125448219D01*
X140896490Y-125448219D02*
X140896490Y-124448219D01*
X140896490Y-124448219D02*
X140991728Y-124591076D01*
X140991728Y-124591076D02*
X141086966Y-124686314D01*
X141086966Y-124686314D02*
X141182204Y-124733933D01*
X139706014Y-124448219D02*
X140182204Y-124448219D01*
X140182204Y-124448219D02*
X140229823Y-124924409D01*
X140229823Y-124924409D02*
X140182204Y-124876790D01*
X140182204Y-124876790D02*
X140086966Y-124829171D01*
X140086966Y-124829171D02*
X139848871Y-124829171D01*
X139848871Y-124829171D02*
X139753633Y-124876790D01*
X139753633Y-124876790D02*
X139706014Y-124924409D01*
X139706014Y-124924409D02*
X139658395Y-125019647D01*
X139658395Y-125019647D02*
X139658395Y-125257742D01*
X139658395Y-125257742D02*
X139706014Y-125352980D01*
X139706014Y-125352980D02*
X139753633Y-125400600D01*
X139753633Y-125400600D02*
X139848871Y-125448219D01*
X139848871Y-125448219D02*
X140086966Y-125448219D01*
X140086966Y-125448219D02*
X140182204Y-125400600D01*
X140182204Y-125400600D02*
X140229823Y-125352980D01*
%TO.C,SW1*%
D11*
X120190900Y-93777999D02*
G75*
G02*
X119936900Y-93777999I-127000J0D01*
G01*
X119936900Y-93777999D02*
G75*
G02*
X120190900Y-93777999I127000J0D01*
G01*
%TO.C,U1*%
D12*
X152456499Y-133197600D02*
G75*
G02*
X151694499Y-133197600I-381000J0D01*
G01*
X151694499Y-133197600D02*
G75*
G02*
X152456499Y-133197600I381000J0D01*
G01*
%TO.C,U2*%
D13*
X141743900Y-120827000D02*
X141971318Y-120827000D01*
X141743900Y-121547015D02*
X141743900Y-120827000D01*
X141743900Y-124078200D02*
X141743900Y-123358185D01*
X141971318Y-124078200D02*
X141743900Y-124078200D01*
X144259682Y-120827000D02*
X144487100Y-120827000D01*
X144487100Y-120827000D02*
X144487100Y-121547015D01*
X144487100Y-123358185D02*
X144487100Y-124078200D01*
X144487100Y-124078200D02*
X144259682Y-124078200D01*
D14*
G36*
X143056001Y-124357600D02*
G01*
X142675000Y-124357600D01*
X142675000Y-124103600D01*
X143056001Y-124103600D01*
X143056001Y-124357600D01*
G37*
%TO.C,C13*%
D15*
X160064667Y-105662000D02*
X159772133Y-105662000D01*
X160064667Y-106682000D02*
X159772133Y-106682000D01*
%TO.C,C14*%
X144879600Y-122289734D02*
X144879600Y-122582268D01*
X145899600Y-122289734D02*
X145899600Y-122582268D01*
%TO.C,R2*%
X183380767Y-89660000D02*
X183088233Y-89660000D01*
X183380767Y-90680000D02*
X183088233Y-90680000D01*
%TO.C,R6*%
X120275133Y-99972400D02*
X120567667Y-99972400D01*
X120275133Y-100992400D02*
X120567667Y-100992400D01*
%TO.C,FB2*%
X157806358Y-121563200D02*
X158626842Y-121563200D01*
X157806358Y-122683200D02*
X158626842Y-122683200D01*
%TO.C,C17*%
D13*
X161963100Y-126339600D02*
X161963100Y-125577600D01*
X162344100Y-125958600D02*
X161582100Y-125958600D01*
X163550600Y-122428000D02*
X170611800Y-122428000D01*
X163550600Y-125079760D02*
X163550600Y-122428000D01*
X163550600Y-129489200D02*
X163550600Y-126837440D01*
X170611800Y-122428000D02*
X170611800Y-125079760D01*
X170611800Y-126837440D02*
X170611800Y-129489200D01*
X170611800Y-129489200D02*
X163550600Y-129489200D01*
%TO.C,R1*%
D15*
X183380767Y-102106000D02*
X183088233Y-102106000D01*
X183380767Y-103126000D02*
X183088233Y-103126000D01*
%TO.C,C10*%
X122375200Y-102215733D02*
X122375200Y-102508267D01*
X123395200Y-102215733D02*
X123395200Y-102508267D01*
%TO.C,C18*%
D13*
X147942300Y-122478800D02*
X155003500Y-122478800D01*
X147942300Y-125130560D02*
X147942300Y-122478800D01*
X147942300Y-129540000D02*
X147942300Y-126888240D01*
X155003500Y-122478800D02*
X155003500Y-125130560D01*
X155003500Y-126888240D02*
X155003500Y-129540000D01*
X155003500Y-129540000D02*
X147942300Y-129540000D01*
X156210000Y-126009400D02*
X156972000Y-126009400D01*
X156591000Y-125628400D02*
X156591000Y-126390400D01*
%TO.C,C16*%
D15*
X144165367Y-125956600D02*
X143872833Y-125956600D01*
X144165367Y-126976600D02*
X143872833Y-126976600D01*
%TO.C,C15*%
X144165367Y-124483400D02*
X143872833Y-124483400D01*
X144165367Y-125503400D02*
X143872833Y-125503400D01*
%TD*%
M02*
