%TF.GenerationSoftware,KiCad,Pcbnew,10.0.0*%
%TF.CreationDate,2026-07-11T18:13:44-07:00*%
%TF.ProjectId,LiDAR Scanner,4c694441-5220-4536-9361-6e6e65722e6b,rev?*%
%TF.SameCoordinates,Original*%
%TF.FileFunction,Soldermask,Bot*%
%TF.FilePolarity,Negative*%
%FSLAX46Y46*%
G04 Gerber Fmt 4.6, Leading zero omitted, Abs format (unit mm)*
G04 Created by KiCad (PCBNEW 10.0.0) date 2026-07-11 18:13:44*
%MOMM*%
%LPD*%
G01*
G04 APERTURE LIST*
G04 Aperture macros list*
%AMRoundRect*
0 Rectangle with rounded corners*
0 $1 Rounding radius*
0 $2 $3 $4 $5 $6 $7 $8 $9 X,Y pos of 4 corners*
0 Add a 4 corners polygon primitive as box body*
4,1,4,$2,$3,$4,$5,$6,$7,$8,$9,$2,$3,0*
0 Add four circle primitives for the rounded corners*
1,1,$1+$1,$2,$3*
1,1,$1+$1,$4,$5*
1,1,$1+$1,$6,$7*
1,1,$1+$1,$8,$9*
0 Add four rect primitives between the rounded corners*
20,1,$1+$1,$2,$3,$4,$5,0*
20,1,$1+$1,$4,$5,$6,$7,0*
20,1,$1+$1,$6,$7,$8,$9,0*
20,1,$1+$1,$8,$9,$2,$3,0*%
G04 Aperture macros list end*
%ADD10C,1.507998*%
%ADD11R,1.700000X1.700000*%
%ADD12C,1.700000*%
%ADD13C,3.000000*%
%ADD14C,1.397000*%
%ADD15O,2.004000X1.204000*%
%ADD16O,2.404000X1.204000*%
%ADD17R,0.304800X0.533400*%
%ADD18R,0.533400X0.304800*%
%ADD19RoundRect,0.237500X0.300000X0.237500X-0.300000X0.237500X-0.300000X-0.237500X0.300000X-0.237500X0*%
%ADD20RoundRect,0.237500X-0.237500X0.300000X-0.237500X-0.300000X0.237500X-0.300000X0.237500X0.300000X0*%
%ADD21RoundRect,0.237500X-0.300000X-0.237500X0.300000X-0.237500X0.300000X0.237500X-0.300000X0.237500X0*%
%ADD22RoundRect,0.250000X-0.275000X-0.350000X0.275000X-0.350000X0.275000X0.350000X-0.275000X0.350000X0*%
%ADD23R,2.692400X1.092200*%
G04 APERTURE END LIST*
D10*
%TO.C,SW1*%
X117523900Y-93777999D03*
X117523900Y-100278001D03*
X113023899Y-93777999D03*
X113023899Y-100278001D03*
%TD*%
D11*
%TO.C,J3*%
X112903000Y-110464600D03*
D12*
X112903000Y-113004600D03*
X112903000Y-115544600D03*
%TD*%
D13*
%TO.C,3*%
X185013600Y-80010000D03*
%TD*%
D14*
%TO.C,U1*%
X155535599Y-133197600D03*
X158035599Y-133197600D03*
X160535599Y-133197600D03*
X163035599Y-133197600D03*
X165535599Y-133197600D03*
X168035600Y-133197600D03*
X170535600Y-133197600D03*
%TD*%
D11*
%TO.C,J2*%
X183337200Y-133197600D03*
D12*
X180797200Y-133197600D03*
X178257200Y-133197600D03*
X175717200Y-133197600D03*
%TD*%
D13*
%TO.C,2*%
X114974000Y-71989200D03*
%TD*%
D11*
%TO.C,J6*%
X147320000Y-131419600D03*
D12*
X147320000Y-133959600D03*
X144780000Y-131419600D03*
X144780000Y-133959600D03*
X142240000Y-131419600D03*
X142240000Y-133959600D03*
X139700000Y-131419600D03*
X139700000Y-133959600D03*
X137160000Y-131419600D03*
X137160000Y-133959600D03*
X134620000Y-131419600D03*
X134620000Y-133959600D03*
%TD*%
D11*
%TO.C,J4*%
X157124400Y-62814200D03*
D12*
X154584400Y-62814200D03*
X152044400Y-62814200D03*
X149504400Y-62814200D03*
X146964400Y-62814200D03*
%TD*%
D15*
%TO.C,J1*%
X184198500Y-100840000D03*
D16*
X188198500Y-100840000D03*
D15*
X184198500Y-92200000D03*
D16*
X188198500Y-92200000D03*
%TD*%
D11*
%TO.C,J5*%
X170459400Y-62839600D03*
D12*
X167919400Y-62839600D03*
X165379400Y-62839600D03*
X162839400Y-62839600D03*
%TD*%
D13*
%TO.C,4*%
X185013600Y-119989600D03*
%TD*%
%TO.C,1*%
X114974000Y-128005600D03*
%TD*%
D17*
%TO.C,U2*%
X142365499Y-121322300D03*
X142865500Y-121322300D03*
X143365500Y-121322300D03*
X143865501Y-121322300D03*
D18*
X144004500Y-121952601D03*
X144004500Y-122452600D03*
X144004500Y-122952599D03*
D17*
X143865501Y-123582900D03*
X143365500Y-123582900D03*
X142865500Y-123582900D03*
X142365499Y-123582900D03*
D18*
X142226500Y-122952599D03*
X142226500Y-122452600D03*
X142226500Y-121952601D03*
%TD*%
D19*
%TO.C,C13*%
X160780900Y-106172000D03*
X159055900Y-106172000D03*
%TD*%
D20*
%TO.C,C14*%
X145389600Y-121573501D03*
X145389600Y-123298501D03*
%TD*%
D19*
%TO.C,R2*%
X184097000Y-90170000D03*
X182372000Y-90170000D03*
%TD*%
D21*
%TO.C,R6*%
X119558900Y-100482400D03*
X121283900Y-100482400D03*
%TD*%
D22*
%TO.C,FB2*%
X157066600Y-122123200D03*
X159366600Y-122123200D03*
%TD*%
D23*
%TO.C,C17*%
X164426900Y-125958600D03*
X169735500Y-125958600D03*
%TD*%
D19*
%TO.C,R1*%
X184097000Y-102616000D03*
X182372000Y-102616000D03*
%TD*%
D20*
%TO.C,C10*%
X122885200Y-101499500D03*
X122885200Y-103224500D03*
%TD*%
D23*
%TO.C,C18*%
X154127200Y-126009400D03*
X148818600Y-126009400D03*
%TD*%
D19*
%TO.C,C16*%
X144881600Y-126466600D03*
X143156600Y-126466600D03*
%TD*%
%TO.C,C15*%
X144881600Y-124993400D03*
X143156600Y-124993400D03*
%TD*%
M02*
